<svg width="24" height="22" viewBox="0 0 24 22" fill="none" xmlns="http://www.w3.org/2000/svg">
<path d="M21.8944 5.53442H2.10577C1.04934 5.53442 0.193115 6.39102 0.193115 7.44712V10.0666L9.94788 12.1239V10.8196H13.9959V12.1239L23.8067 10.0535V7.44712C23.8067 6.39102 22.9505 5.53442 21.8944 5.53442Z" fill="#3EC1D5"/>
<path d="M13.9961 16.2176H9.94805V13.588L0.868164 11.7847V19.4774C0.868164 20.5335 1.72402 21.39 2.78008 21.39H21.2201C22.2761 21.39 23.1324 20.5335 23.1324 19.4774V11.7712L13.9961 13.5879V16.2176Z" fill="#3EC1D5"/>
<path d="M12.9848 11.8325H10.9609V15.2054H12.9848V11.8325Z" fill="#3EC1D5"/>
<path d="M9.12958 2.5235C9.12995 2.44496 9.159 2.38251 9.21029 2.32943C9.26226 2.27856 9.32513 2.25019 9.40289 2.24945H14.595C14.6727 2.25019 14.736 2.27856 14.788 2.32943C14.8389 2.38251 14.8676 2.44496 14.8679 2.5235V3.88991H16.5073V2.5235C16.5077 1.99727 16.2921 1.51462 15.9473 1.17084C15.6038 0.825628 15.1201 0.609739 14.595 0.610108H9.40289C8.87739 0.609739 8.39401 0.825628 8.05064 1.17084C7.70612 1.51462 7.48991 1.99722 7.49097 2.5235V3.88991H9.12958V2.5235Z" fill="#3EC1D5"/>
</svg>
