<svg width="22" height="22" viewBox="0 0 22 22" fill="none" xmlns="http://www.w3.org/2000/svg">
<path d="M18.4966 6.90338L10.9045 14.4943C10.1485 15.2502 7.90427 15.6003 7.40291 15.099C6.90154 14.5977 7.24374 12.3539 7.99977 11.598L15.5998 3.99907C15.7872 3.79462 16.0141 3.63028 16.2669 3.51593C16.5196 3.40159 16.7928 3.33961 17.0702 3.33377C17.3474 3.32793 17.6231 3.37833 17.8804 3.48194C18.1377 3.58555 18.3713 3.74023 18.5672 3.93661C18.763 4.13299 18.9171 4.367 19.02 4.62454C19.1229 4.88208 19.1726 5.15779 19.166 5.43505C19.1594 5.71231 19.0966 5.98539 18.9817 6.23774C18.8666 6.4901 18.7016 6.71654 18.4966 6.90338Z" stroke="black" stroke-width="1.5" stroke-linecap="round" stroke-linejoin="round"/>
<path d="M11.25 3H6.66667C5.6942 3 4.76163 3.3863 4.07399 4.07394C3.38637 4.76158 3 5.6942 3 6.66667V15.8333C3 16.8058 3.38637 17.7384 4.07399 18.426C4.76163 19.1137 5.6942 19.5 6.66667 19.5H16.75C18.7758 19.5 19.5 17.85 19.5 15.8333V11.25" stroke="black" stroke-width="1.5" stroke-linecap="round" stroke-linejoin="round"/>
</svg>
