<svg width="19" height="19" viewBox="0 0 19 19" fill="none" xmlns="http://www.w3.org/2000/svg">
<path fill-rule="evenodd" clip-rule="evenodd" d="M5.3495 4.92588L9.48927 7.94557L13.7184 4.82187C14.3644 4.31168 15.1928 4.2235 15.8697 4.56404C16.5579 4.91026 17.0208 5.66145 17.0208 6.68726V13.2698C17.0208 13.643 16.9738 14.1778 16.6894 14.6285C16.384 15.1124 15.8483 15.433 15.0252 15.433H13.3704C13.1518 15.433 12.9746 15.2557 12.9746 15.0372V10.4506L9.72693 12.866C9.58649 12.9705 9.39403 12.9703 9.25375 12.8655L6.02532 10.4529V13.2356C6.02532 13.4541 5.8481 13.6314 5.62948 13.6314C5.41087 13.6314 5.23365 13.4541 5.23365 13.2356V9.66293C5.23365 9.51307 5.31823 9.37611 5.45216 9.30906C5.58609 9.24192 5.74644 9.25617 5.86644 9.34587L9.49133 12.0546L13.1342 9.34531C13.2543 9.25602 13.4144 9.242 13.5481 9.30922C13.6819 9.37643 13.7663 9.51331 13.7663 9.66293V14.6413H15.0252C15.6143 14.6413 15.8786 14.4299 16.02 14.2059C16.1823 13.9487 16.2291 13.5998 16.2291 13.2698V6.68726C16.2291 5.90963 15.8922 5.46155 15.5139 5.27125C15.1264 5.07628 14.6246 5.1128 14.2051 5.44618C14.2015 5.44909 14.1978 5.45193 14.1941 5.4547L9.7259 8.75497C9.5868 8.85773 9.39712 8.85828 9.25747 8.75639L4.87807 5.56189C4.48551 5.26928 3.90488 5.09268 3.45938 5.16022C3.24697 5.19242 3.08614 5.27594 2.97609 5.40616C2.86597 5.53647 2.77079 5.75609 2.77079 6.1282V13.5764C2.77079 14.0998 2.95784 14.3486 3.13673 14.4771C3.33741 14.6211 3.59069 14.6576 3.75562 14.6428C3.7673 14.6418 3.77904 14.6413 3.79077 14.6413H4.83782C5.05644 14.6413 5.23365 14.8185 5.23365 15.0372C5.23365 15.2557 5.05644 15.433 4.83782 15.433H3.80698C3.50042 15.4563 3.05636 15.394 2.67505 15.1202C2.26402 14.8251 1.97913 14.3224 1.97913 13.5764V6.1282C1.97913 5.61962 2.11148 5.20278 2.37141 4.89519C2.6314 4.58753 2.98312 4.43171 3.34071 4.3775C4.03446 4.27232 4.82271 4.5339 5.3495 4.92588Z" fill="#808080"/>
</svg>
