<svg width="19" height="19" viewBox="0 0 19 19" fill="none" xmlns="http://www.w3.org/2000/svg">
<path d="M9.50005 18.7922C4.79458 18.7922 0.0148926 17.7829 0.0148926 15.8532C0.0148926 14.1313 3.69614 13.4188 5.26958 13.1961H5.32896C5.55161 13.1961 5.74458 13.3594 5.77427 13.5821C5.78911 13.7008 5.75942 13.8196 5.6852 13.9086C5.61099 13.9977 5.50708 14.0719 5.38833 14.0868C2.10786 14.5618 0.890674 15.4227 0.890674 15.868C0.890674 16.6993 4.24536 17.9165 9.48521 17.9165C14.725 17.9165 18.0797 16.6993 18.0797 15.868C18.0797 15.4227 16.8477 14.5618 13.5375 14.0868C13.4188 14.0719 13.3149 14.0125 13.2407 13.9086C13.1665 13.8196 13.1368 13.7008 13.1516 13.5821C13.1813 13.3594 13.3743 13.1961 13.5969 13.1961H13.6563C15.2446 13.4188 18.9555 14.1313 18.9555 15.8532C18.9704 17.768 14.2055 18.7922 9.50005 18.7922ZM9.18833 15.6454C8.96567 15.4375 3.82974 10.5836 3.82974 5.8188C3.82974 2.70161 6.36802 0.16333 9.48521 0.16333C12.6024 0.16333 15.1407 2.70161 15.1407 5.8188C15.1407 10.45 10.0047 15.4227 9.78208 15.6305L9.48521 15.9274L9.18833 15.6454ZM9.50005 1.05396C6.8727 1.05396 4.73521 3.19146 4.73521 5.8188C4.73521 9.54458 8.37192 13.5375 9.50005 14.6805C10.643 13.5079 14.2797 9.44067 14.2797 5.8188C14.2649 3.2063 12.1274 1.05396 9.50005 1.05396ZM9.50005 8.34224C8.01567 8.34224 6.81333 7.13989 6.81333 5.65552C6.81333 4.17114 8.01567 2.9688 9.50005 2.9688C10.9844 2.9688 12.1868 4.17114 12.1868 5.65552C12.1868 7.13989 10.9844 8.34224 9.50005 8.34224ZM9.50005 3.85942C8.50552 3.85942 7.70396 4.66099 7.70396 5.65552C7.70396 6.65005 8.50552 7.45161 9.50005 7.45161C10.4946 7.45161 11.2961 6.65005 11.2961 5.65552C11.2961 4.66099 10.4797 3.85942 9.50005 3.85942Z" fill="#808080"/>
</svg>
