<svg width="30" height="30" viewBox="0 0 30 30" fill="none" xmlns="http://www.w3.org/2000/svg">
<path fill-rule="evenodd" clip-rule="evenodd" d="M7.89146 15.5787C7.75008 11.6152 10.7622 8.2815 14.6263 8.125C18.4904 8.2815 21.5025 11.6152 21.3611 15.5787C21.3611 17.225 23.1051 18.8287 23.1563 20.4787C23.1563 20.5021 23.1563 20.5254 23.1563 20.5487C23.194 21.6059 22.3905 22.4949 21.3599 22.5362H17.4696C17.4733 23.3462 17.1755 24.1272 16.6373 24.72C16.1196 25.2965 15.3904 25.6245 14.6263 25.6245C13.8621 25.6245 13.133 25.2965 12.6154 24.72C12.077 24.1272 11.7793 23.3462 11.7829 22.5362H7.89146C6.86086 22.4949 6.05729 21.6059 6.09503 20.5487C6.09503 20.5254 6.09503 20.5021 6.09503 20.4787C6.14744 18.8337 7.89146 17.2262 7.89146 15.5787Z" stroke="white" stroke-linecap="round" stroke-linejoin="round"/>
<path d="M11.783 21.5987C11.2652 21.5987 10.8455 22.0185 10.8455 22.5362C10.8455 23.054 11.2652 23.4737 11.783 23.4737V21.5987ZM17.4697 23.4737C17.9874 23.4737 18.4072 23.054 18.4072 22.5362C18.4072 22.0185 17.9874 21.5987 17.4697 21.5987V23.4737ZM15.845 6.5625C16.3628 6.5625 16.7825 6.14276 16.7825 5.625C16.7825 5.10724 16.3628 4.6875 15.845 4.6875V6.5625ZM13.4075 4.6875C12.8898 4.6875 12.4701 5.10724 12.4701 5.625C12.4701 6.14276 12.8898 6.5625 13.4075 6.5625V4.6875ZM11.783 23.4737H17.4697V21.5987H11.783V23.4737ZM15.845 4.6875H13.4075V6.5625H15.845V4.6875Z" fill="white"/>
</svg>
