<svg width="22" height="22" viewBox="0 0 22 22" fill="none" xmlns="http://www.w3.org/2000/svg">
<path fill-rule="evenodd" clip-rule="evenodd" d="M15.4893 12.9038C14.9928 13.5807 14.3788 14.905 13.6623 16.1069C12.8755 17.4336 11.9737 14.1317 10.9867 14.1317C9.97252 14.1317 9.02505 17.3731 8.20482 16.0143C7.49823 14.8445 6.888 13.5845 6.40623 12.9372C1.41194 12.9372 1.26123 20.2093 1.26123 20.2093H20.7109C20.7109 20.2093 21.1038 12.9038 15.4893 12.9038Z" fill="#FF9A02"/>
<path fill-rule="evenodd" clip-rule="evenodd" d="M14.7198 5.95155C14.7198 8.25043 13.0917 12.6493 11.0782 12.6493C9.0671 12.6493 7.43774 8.25043 7.43774 5.95155C7.43774 3.65019 9.0671 1.78613 11.0782 1.78613C13.0917 1.7849 14.7198 3.64896 14.7198 5.95155Z" fill="#FF9A02"/>
</svg>
