<svg width="19" height="19" viewBox="0 0 19 19" fill="none" xmlns="http://www.w3.org/2000/svg">
<path fill-rule="evenodd" clip-rule="evenodd" d="M4.83626 5.21514C5.50506 4.51062 5.74142 4.31302 6.02642 4.22106C6.22366 4.16938 6.4305 4.1665 6.6291 4.2127C6.89054 4.2887 6.9597 4.34646 7.81696 5.2007C8.57012 5.95082 8.64536 6.03214 8.71756 6.17882C8.85565 6.43629 8.87723 6.74045 8.77684 7.01482C8.70084 7.22382 8.59292 7.36214 8.13616 7.82042L7.83824 8.11913C7.76003 8.19863 7.74164 8.31932 7.79264 8.41857C8.4546 9.54778 9.39365 10.4895 10.521 11.1546C10.6508 11.224 10.8107 11.2016 10.9162 11.0991L11.2028 10.8171C11.3798 10.6356 11.5674 10.4646 11.7644 10.3049C12.0739 10.1149 12.4594 10.0979 12.7843 10.2601C12.9432 10.3361 12.9956 10.3832 13.7723 11.1584C14.5734 11.9571 14.5962 11.9822 14.6843 12.1654C14.8502 12.4685 14.8485 12.8358 14.6798 13.1374C14.5939 13.3077 14.5414 13.3692 14.0908 13.8298C13.8187 14.1079 13.5626 14.3618 13.5215 14.399C13.1497 14.7068 12.6728 14.8578 12.1915 14.8201C11.3111 14.7398 10.4589 14.4676 9.69492 14.0228C8.00255 13.1261 6.56176 11.8197 5.5043 10.2228C5.27397 9.88857 5.06921 9.53745 4.89174 9.1725C4.41566 8.35648 4.16982 7.42669 4.18038 6.48206C4.21672 5.98787 4.45371 5.5301 4.83626 5.21514Z" stroke="#808080" stroke-linecap="round" stroke-linejoin="round"/>
</svg>
