<svg width="20" height="18" viewBox="0 0 20 18" fill="none" xmlns="http://www.w3.org/2000/svg">
<path d="M19.6884 8.964C19.6502 8.6805 19.4844 8.44125 19.2444 8.28751C19.0854 8.1855 18.8882 8.18475 18.7217 8.25601C18.7194 7.644 18.7217 7.032 18.7059 6.42075C18.6902 5.7345 18.7277 5.04901 18.7532 4.36425C18.7622 4.1385 18.6174 3.9435 18.4232 3.8475C18.4059 3.5895 18.3879 3.3315 18.3654 3.07425C18.3512 2.9205 18.3384 2.76675 18.3167 2.6145C18.3122 2.5845 18.3084 2.5545 18.3039 2.5245C18.2927 2.445 18.2567 2.30775 18.2117 2.247C18.1464 2.1615 18.0909 2.06625 17.9897 2.0175C17.9154 1.98225 17.8442 1.94775 17.7632 1.9365C17.6844 1.9245 17.6034 1.9245 17.5239 1.9155C17.5067 1.66275 17.4932 1.41 17.4819 1.15725C17.5104 1.092 17.5262 1.0215 17.5262 0.948005C17.5262 0.651755 17.2794 0.409505 16.9862 0.406505C16.3824 0.402005 15.7787 0.411005 15.1749 0.385505C14.6319 0.363005 14.0897 0.331505 13.5444 0.320255C12.3992 0.299255 11.2517 0.307505 10.1049 0.299255C8.97994 0.291755 7.85644 0.269255 6.72919 0.266255C6.17944 0.265505 5.62969 0.255005 5.08069 0.255005C4.55119 0.255005 4.02094 0.264755 3.49219 0.301505C2.90869 0.342755 2.31769 0.476255 1.78069 0.710255C1.25644 0.936755 0.785441 1.38825 0.622691 1.94475C0.578441 2.097 0.555941 2.25225 0.535691 2.4105C0.518441 2.53875 0.503441 2.67 0.518441 2.799C0.537191 2.96025 0.563441 3.11625 0.606191 3.27075C0.429941 3.36 0.306191 3.54 0.303941 3.74775C0.296441 4.34625 0.299441 4.944 0.288191 5.541C0.278441 6.084 0.265691 6.62626 0.259691 7.16776C0.249941 8.26425 0.243941 9.35925 0.259691 10.4565C0.270941 11.2185 0.288191 11.9805 0.291191 12.7425C0.295691 13.5075 0.305441 14.2733 0.288191 15.0398C0.285941 15.135 0.319691 15.2205 0.366191 15.2985C0.479441 15.591 0.597941 15.885 0.751691 16.158C0.814691 16.269 0.894191 16.3718 0.970691 16.4745C1.04194 16.5683 1.11469 16.6613 1.18744 16.7535C1.29844 16.8945 1.46494 17.0055 1.61344 17.1008C1.94494 17.3175 2.33119 17.4555 2.72044 17.5238C3.05794 17.5823 3.39844 17.6393 3.74044 17.6603C4.36144 17.697 4.98544 17.7015 5.60869 17.7128C6.20119 17.7225 6.79369 17.7338 7.38469 17.733C7.98844 17.733 8.59069 17.7263 9.19369 17.73C9.79894 17.736 10.4027 17.754 11.0079 17.7413C11.6319 17.73 12.2544 17.7045 12.8777 17.6955C13.4769 17.6858 14.0799 17.6888 14.6792 17.6888C15.2514 17.6888 15.8244 17.6888 16.3952 17.6813C16.6629 17.6783 16.9307 17.6813 17.1999 17.6843C17.4819 17.6873 17.7639 17.6903 18.0474 17.6858C18.2402 17.6835 18.4082 17.5875 18.5222 17.4465C18.6669 17.343 18.7697 17.1833 18.7659 16.9965C18.7532 16.3515 18.7599 15.7065 18.7532 15.0608C18.7434 14.3198 18.7547 13.5803 18.7674 12.84C18.9452 12.813 19.1042 12.7613 19.2519 12.6375C19.5812 12.3615 19.6592 11.8883 19.6937 11.484C19.7154 11.2335 19.7154 10.9815 19.7252 10.7295C19.7409 10.3448 19.7597 9.95625 19.7462 9.57001C19.7387 9.36751 19.7154 9.165 19.6884 8.964ZM3.77719 3.62625C3.77944 3.5715 3.78244 3.516 3.77044 3.45975C3.76744 3.4455 3.76519 3.43051 3.76219 3.41625C3.74719 3.18675 3.75469 2.95575 3.75694 2.72475C4.85419 2.75625 5.95219 2.757 7.05094 2.76225C7.61644 2.76525 8.18194 2.7795 8.74744 2.79375C9.27169 2.808 9.79444 2.84625 10.3187 2.8635C10.8639 2.88225 11.4107 2.8905 11.9582 2.90175C12.5049 2.913 13.0532 2.92425 13.5999 2.92875C14.1564 2.93325 14.7137 2.9385 15.2694 2.94C15.7592 2.9415 16.2497 2.9625 16.7394 2.9655C16.9209 2.96625 17.1017 2.973 17.2817 2.9865C17.3117 3.25125 17.3312 3.51675 17.3394 3.78375C17.0477 3.78975 16.7552 3.78675 16.4649 3.78375C15.9197 3.77625 15.3737 3.75975 14.8284 3.75675C13.7334 3.75075 12.6407 3.714 11.5457 3.70575C10.3809 3.6975 9.21694 3.70725 8.05219 3.666C7.30294 3.6405 6.55219 3.642 5.80369 3.6435C5.40319 3.6435 5.00344 3.645 4.60444 3.6405C4.32844 3.63675 4.05244 3.633 3.77719 3.62625ZM18.5634 11.6805C18.5634 11.6805 18.5657 11.6783 18.5672 11.6768C18.5664 11.6783 18.5649 11.6798 18.5634 11.6805ZM18.4179 9.31875C18.4569 9.32175 18.4952 9.3195 18.5319 9.3135C18.5544 9.64275 18.5507 9.97276 18.5447 10.3035C18.5417 10.5128 18.5379 10.722 18.5334 10.9328C18.5312 11.1375 18.5342 11.3423 18.5154 11.5455C18.5064 11.5928 18.4959 11.6393 18.4832 11.6858C18.2754 11.6963 18.0654 11.6895 17.8584 11.6843C17.6064 11.6783 17.3544 11.676 17.1024 11.676C16.5437 11.676 15.9827 11.6775 15.4284 11.6145C15.2597 11.5845 15.0962 11.5418 14.9357 11.4825C14.7744 11.406 14.6267 11.3175 14.4834 11.214C14.4294 11.1668 14.3777 11.118 14.3282 11.0663C14.2982 11.0198 14.2719 10.9725 14.2464 10.9238C14.2202 10.8533 14.1962 10.782 14.1767 10.7078C14.1647 10.5405 14.1699 10.377 14.1879 10.2105C14.2179 10.032 14.2547 9.85501 14.3162 9.68401C14.3364 9.64426 14.3582 9.60676 14.3814 9.57001C14.4099 9.5415 14.4384 9.51375 14.4684 9.48825C14.5254 9.453 14.5839 9.42075 14.6447 9.39075C14.7924 9.3375 14.9424 9.297 15.0984 9.26925C15.3422 9.2445 15.5852 9.23925 15.8304 9.23326C16.0922 9.22576 16.3547 9.21601 16.6164 9.21601C17.2179 9.21301 17.8202 9.273 18.4179 9.31875ZM1.67119 2.475C1.68844 2.382 1.70944 2.29125 1.73944 2.202C1.76044 2.16 1.78369 2.12025 1.80844 2.08125C1.87369 2.00775 1.94344 1.93875 2.01769 1.87425C2.11294 1.809 2.21194 1.755 2.31694 1.70475C2.67319 1.569 3.04744 1.48425 3.42244 1.42725C3.93469 1.3725 4.44469 1.34775 4.95919 1.344C5.50294 1.341 6.04744 1.33575 6.59119 1.33425C7.09819 1.33425 7.60519 1.33725 8.11369 1.34025C8.72194 1.34325 9.33169 1.347 9.94069 1.34325C11.0829 1.3365 12.2252 1.3335 13.3674 1.356C13.9142 1.36725 14.4594 1.3785 15.0069 1.4145C15.4577 1.446 15.9092 1.4565 16.3607 1.4685C16.3712 1.60125 16.3802 1.73475 16.3952 1.86825C16.3449 1.86825 16.2947 1.86675 16.2444 1.8675C15.1764 1.87425 14.1084 1.89 13.0397 1.87425C12.4742 1.8675 11.9087 1.8555 11.3447 1.8375C10.8107 1.82175 10.2782 1.81725 9.74494 1.79625C9.19969 1.7745 8.65519 1.752 8.10994 1.74525C7.56469 1.737 7.01869 1.73775 6.47344 1.731C5.45644 1.71525 4.43944 1.6785 3.42394 1.63575C3.41719 1.63575 3.41044 1.635 3.40369 1.635C3.14119 1.635 2.93044 1.857 2.89519 2.10825C2.73694 2.2095 2.62444 2.3775 2.62519 2.5755C2.62669 2.9055 2.63269 3.23775 2.67469 3.56625C2.65219 3.56175 2.62819 3.56251 2.60419 3.5595C2.43019 3.53251 2.25769 3.50325 2.09044 3.44775C2.03644 3.42 1.98544 3.38925 1.93444 3.35475C1.90744 3.33075 1.88269 3.306 1.85869 3.279C1.81819 3.21375 1.78444 3.147 1.75294 3.078C1.71544 2.979 1.68619 2.88 1.66444 2.7765C1.65769 2.67525 1.66144 2.57625 1.67119 2.475ZM16.3449 16.4775C15.7622 16.4918 15.1787 16.4903 14.5959 16.503C13.3494 16.527 12.1037 16.5698 10.8557 16.5788C10.2774 16.5818 9.69769 16.5945 9.11944 16.59C8.50444 16.587 7.89019 16.5788 7.27669 16.5773C6.69694 16.5758 6.11719 16.5833 5.53744 16.5855C4.91344 16.587 4.28569 16.59 3.66469 16.5285C3.61519 16.5233 3.56569 16.5188 3.51619 16.5135C3.17794 16.4655 2.83744 16.4055 2.51794 16.287C2.39044 16.224 2.26744 16.1543 2.15044 16.074C2.06944 16.0028 1.99819 15.9255 1.92994 15.843C1.86994 15.7635 1.81144 15.6818 1.75669 15.597C1.69744 15.5025 1.65094 15.3983 1.60594 15.2955C1.55419 15.168 1.50469 15.039 1.45594 14.9093C1.42669 14.832 1.39069 14.7638 1.34494 14.703C1.33744 13.737 1.33744 12.7718 1.32469 11.8073C1.31644 11.2718 1.30594 10.7348 1.29919 10.1993C1.29094 9.64951 1.29769 9.09825 1.29619 8.5485C1.29619 7.76175 1.29469 6.975 1.31494 6.1875C1.32994 5.5755 1.34869 4.96426 1.36519 4.35225C1.40119 4.37475 1.43644 4.3995 1.47244 4.41975C1.77169 4.58475 2.10619 4.626 2.43919 4.6665C2.71819 4.701 2.99869 4.716 3.28069 4.7265C3.84019 4.74675 4.40194 4.73925 4.96294 4.73925C5.55394 4.73925 6.14344 4.7325 6.73444 4.7295C7.31569 4.725 7.89394 4.752 8.47444 4.77075C9.03394 4.788 9.59419 4.788 10.1552 4.788C10.7364 4.7865 11.3184 4.782 11.8997 4.7835C12.4697 4.78501 13.0389 4.81875 13.6074 4.85325C14.6754 4.91625 15.7479 4.92 16.8174 4.93275C17.0702 4.93575 17.3267 4.93275 17.5824 4.92225C17.5667 5.9925 17.5809 7.06351 17.5854 8.13375C17.2352 8.11725 16.8849 8.0925 16.5339 8.08875C16.2647 8.08575 15.9954 8.0775 15.7277 8.073C15.7007 8.07225 15.6744 8.07225 15.6474 8.07225C15.3489 8.07225 15.0542 8.10075 14.7579 8.13975C14.4362 8.184 14.1084 8.31525 13.8324 8.48475C13.6262 8.6115 13.4807 8.781 13.3352 8.97075C13.2437 9.09 13.1897 9.25875 13.1387 9.39526C13.0832 9.54226 13.0532 9.69975 13.0232 9.85425C12.9459 10.2503 12.9092 10.6515 12.9917 11.0505C13.0119 11.1503 13.0517 11.247 13.0884 11.3423C13.1799 11.58 13.3037 11.7765 13.4747 11.9663C13.6097 12.117 13.7912 12.234 13.9562 12.3495C14.0627 12.4238 14.1797 12.4845 14.2982 12.5393C14.4662 12.615 14.6402 12.6945 14.8209 12.7388C15.1412 12.8183 15.4757 12.8445 15.8049 12.8625C16.1739 12.8828 16.5452 12.8798 16.9172 12.8768C17.0739 12.8753 17.2322 12.8738 17.3897 12.8738C17.4557 12.8738 17.5209 12.8745 17.5869 12.8753C17.5787 14.0693 17.6169 15.2625 17.6267 16.4558C17.1999 16.4603 16.7724 16.4678 16.3449 16.4775ZM16.0989 10.3988C16.0989 10.722 15.8297 10.992 15.5057 10.992C15.1824 10.992 14.9124 10.7228 14.9124 10.3988C14.9124 10.0755 15.1817 9.8055 15.5057 9.8055C15.8289 9.8055 16.0989 10.0755 16.0989 10.3988Z" fill="white"/>
</svg>
