<svg width="19" height="19" viewBox="0 0 19 19" fill="none" xmlns="http://www.w3.org/2000/svg">
<path d="M11.8542 16.5418C10.374 17.04 8.77392 17.0558 7.28419 16.5869C5.79447 16.118 4.49189 15.1887 3.56388 13.9325C2.63586 12.6764 2.13025 11.1582 2.11979 9.59646C2.10934 8.03473 2.59458 6.50994 3.5057 5.24148C4.41681 3.97302 5.70683 3.02629 7.19014 2.53751C8.67346 2.04872 10.2736 2.04309 11.7603 2.52141C13.247 2.99973 14.5437 3.93735 15.4637 5.19936C16.3837 6.46137 16.8797 7.98271 16.8803 9.54448C16.8564 10.1431 16.7839 10.7388 16.6635 11.3257" stroke="#808080" stroke-width="0.5"/>
<path d="M11.2397 15.1703C10.7087 15.7735 10.1267 16.3298 9.5 16.8328" stroke="#808080" stroke-width="0.5"/>
<path d="M9.5 2.07812C11.4922 3.81868 12.7249 6.26916 12.9348 8.90625C12.9779 9.38495 12.9869 9.86612 12.9616 10.3461" stroke="#808080" stroke-width="0.5"/>
<path d="M9.50001 2.07812C8.41912 3.02025 7.55076 4.1813 6.95245 5.48436C6.35415 6.78743 6.03957 8.20275 6.02954 9.63656C6.02954 14.4459 8.19079 15.8709 9.4911 16.8328" stroke="#808080" stroke-width="0.5"/>
<path d="M3.07861 5.90784H15.957" stroke="#808080"/>
<path d="M9.5 2.0752V16.8329" stroke="#808080" stroke-width="0.5"/>
<path d="M3.28052 13.5018H10.9963" stroke="#808080"/>
<path d="M2.11963 9.63654L16.8803 9.45544" stroke="#808080"/>
<path d="M15.9036 16.9219L17.2188 15.6038L14.8438 13.2288L16.1946 12.3649C16.2143 12.3532 16.2299 12.3359 16.2395 12.3152C16.2492 12.2944 16.2522 12.2712 16.2484 12.2487C16.2445 12.2262 16.2339 12.2053 16.2179 12.189C16.2019 12.1726 16.1814 12.1615 16.1589 12.1571L11.6197 11.0942C11.601 11.0904 11.5816 11.0913 11.5633 11.0968C11.5449 11.1023 11.5283 11.1123 11.5147 11.1258C11.5012 11.1394 11.4913 11.156 11.4857 11.1743C11.4802 11.1927 11.4793 11.2121 11.4832 11.2308L12.4688 15.8561C12.4735 15.8786 12.4848 15.8992 12.5013 15.9152C12.5178 15.9312 12.5386 15.942 12.5612 15.9461C12.5838 15.9503 12.6072 15.9476 12.6282 15.9384C12.6493 15.9293 12.6672 15.9141 12.6796 15.8947L13.5286 14.5469L15.9036 16.9219Z" stroke="#808080" stroke-width="0.5"/>
</svg>
